<svg xmlns="http://www.w3.org/2000/svg" width="69" height="41" viewBox="0 0 69 41" fill="none"><rect x="0.465973" y="0.348328" width="68.466" height="40.6517" rx="2.35449" fill="#30435E"></rect><path d="M37.8326 11.6878H31.5648C30.2295 11.6878 29.147 12.7699 29.147 14.1048C29.147 15.4396 30.2295 16.5218 31.5648 16.5218H37.8326C39.1679 16.5218 40.2504 15.4396 40.2504 14.1048C40.2504 12.7699 39.1679 11.6878 37.8326 11.6878Z" fill="white"></path><path d="M31.1595 14.7938C31.3674 14.6214 31.5314 14.476 31.6549 14.361C31.7783 14.246 31.8797 14.1243 31.9626 13.9992C32.0454 13.8741 32.086 13.7506 32.086 13.6306C32.086 13.5207 32.0607 13.4344 32.0082 13.3719C31.9558 13.3093 31.8764 13.2772 31.7682 13.2772C31.6599 13.2772 31.5771 13.3127 31.5179 13.3854C31.4604 13.4581 31.43 13.5562 31.4266 13.6813H30.9853C30.9938 13.4226 31.0716 13.2265 31.217 13.0912C31.3624 12.9576 31.5484 12.89 31.7732 12.89C32.0201 12.89 32.2078 12.956 32.3396 13.0861C32.4715 13.2163 32.5375 13.3888 32.5375 13.6035C32.5375 13.7726 32.4918 13.9332 32.4022 14.0854C32.3109 14.2393 32.2078 14.3728 32.0911 14.4861C31.9744 14.5994 31.8223 14.7363 31.6346 14.8953H32.5899V15.2706H30.9887V14.9342L31.1578 14.7921L31.1595 14.7938Z" fill="#30435E"></path><path d="M33.0798 13.2163C33.215 13.005 33.4382 12.8984 33.7527 12.8984C34.0672 12.8984 34.2904 13.005 34.4256 13.2163C34.5609 13.4277 34.6285 13.7202 34.6285 14.0938C34.6285 14.4675 34.5609 14.7651 34.4256 14.9781C34.2904 15.1911 34.0672 15.2993 33.7527 15.2993C33.4382 15.2993 33.215 15.1928 33.0798 14.9781C32.9445 14.7651 32.8769 14.4692 32.8769 14.0938C32.8769 13.7185 32.9445 13.4277 33.0798 13.2163ZM34.1484 13.6914C34.1281 13.5815 34.0875 13.4936 34.0249 13.4243C33.9624 13.3549 33.8728 13.3211 33.751 13.3211C33.6293 13.3211 33.5397 13.3549 33.4771 13.4243C33.4146 13.4936 33.374 13.5832 33.3537 13.6914C33.3334 13.7996 33.3233 13.9349 33.3233 14.0938C33.3233 14.2528 33.3334 14.3965 33.352 14.5064C33.3723 14.618 33.4129 14.7076 33.4754 14.7752C33.538 14.8428 33.6293 14.8767 33.751 14.8767C33.8728 14.8767 33.9641 14.8428 34.0266 14.7752C34.0892 14.7076 34.1298 14.618 34.1501 14.5064C34.1703 14.3948 34.1788 14.2578 34.1788 14.0938C34.1788 13.9298 34.1686 13.7996 34.1484 13.6914Z" fill="#30435E"></path><path d="M35.1122 14.794C35.3202 14.6215 35.4842 14.4761 35.6076 14.3611C35.7311 14.2461 35.8325 14.1244 35.9154 13.9993C35.9982 13.8742 36.0388 13.7507 36.0388 13.6307C36.0388 13.5208 36.0134 13.4346 35.961 13.372C35.9086 13.3095 35.8291 13.2773 35.7209 13.2773C35.6127 13.2773 35.5299 13.3128 35.4707 13.3855C35.4132 13.4582 35.3828 13.5563 35.3794 13.6814H34.9381C34.9465 13.4227 35.0243 13.2266 35.1697 13.0913C35.3151 12.9578 35.5011 12.8901 35.726 12.8901C35.9728 12.8901 36.1605 12.9561 36.2924 13.0863C36.4243 13.2165 36.4902 13.3889 36.4902 13.6036C36.4902 13.7727 36.4446 13.9333 36.355 14.0855C36.2637 14.2394 36.1605 14.373 36.0439 14.4862C35.9272 14.5995 35.775 14.7365 35.5873 14.8954H36.5426V15.2708H34.9415V14.9343L35.1105 14.7923L35.1122 14.794Z" fill="#30435E"></path><path d="M37.0653 13.066C37.2073 12.9476 37.3933 12.8901 37.6233 12.8901C37.7805 12.8901 37.9158 12.9172 38.0291 12.973C38.1406 13.0288 38.2269 13.1032 38.2827 13.1962C38.3402 13.2909 38.3689 13.3974 38.3689 13.5157C38.3689 13.651 38.3334 13.7677 38.2641 13.8606C38.1931 13.9553 38.1102 14.0179 38.0121 14.05V14.0635C38.1373 14.1024 38.2353 14.1717 38.3046 14.2715C38.3757 14.3713 38.4095 14.4981 38.4095 14.6536C38.4095 14.7838 38.379 14.8988 38.3199 15.0002C38.2607 15.1017 38.1728 15.1811 38.0578 15.2386C37.9428 15.2961 37.8042 15.3249 37.6419 15.3249C37.3984 15.3249 37.1989 15.264 37.045 15.1406C36.8912 15.0171 36.81 14.8362 36.8015 14.5961H37.2428C37.2479 14.7027 37.2834 14.7872 37.351 14.8498C37.4187 14.9123 37.5134 14.9444 37.6317 14.9444C37.7416 14.9444 37.8262 14.914 37.8853 14.8514C37.9445 14.7906 37.9749 14.7111 37.9749 14.613C37.9749 14.4829 37.9344 14.3899 37.8515 14.3341C37.7687 14.2783 37.6419 14.2495 37.4694 14.2495H37.3747V13.8776H37.4694C37.7754 13.8776 37.9293 13.7744 37.9293 13.5698C37.9293 13.4768 37.9022 13.4041 37.8464 13.3534C37.7907 13.3027 37.7129 13.2756 37.608 13.2756C37.5032 13.2756 37.4288 13.3027 37.373 13.3585C37.3172 13.4143 37.2868 13.4836 37.2767 13.5681H36.8337C36.8438 13.3517 36.9199 13.186 37.0619 13.0677L37.0653 13.066Z" fill="#30435E"></path><path d="M24.7197 32.8493C19.8745 29.4384 17.3192 25.1305 17.1241 20.0454C16.9977 16.7625 17.9524 14.1992 18.2242 13.542C20.3878 13.3021 22.0093 11.396 21.8749 9.20049L21.7982 7.95961C21.787 7.78371 21.6367 7.64619 21.4592 7.66058C20.6804 7.70855 19.9368 7.974 19.3068 8.42814C18.1539 9.25966 17.5174 10.6029 17.6038 12.0197L17.6757 13.1934C17.6022 13.3597 17.4407 13.7499 17.2584 14.3239C17.1864 14.0601 17.0889 13.801 16.9642 13.5516C16.4732 12.5682 15.6289 11.8358 14.5863 11.4872L13.4078 11.0938C13.2415 11.0378 13.0592 11.129 13.0032 11.2953C12.757 12.0341 12.725 12.824 12.9105 13.5772C13.2511 14.9572 14.2569 16.0509 15.6049 16.5003L16.6715 16.8569C16.5628 17.5621 16.4892 18.344 16.4764 19.1867C15.6225 17.8915 14.0682 17.1351 12.434 17.3782L11.2043 17.5605C11.1211 17.5733 11.0444 17.618 10.9948 17.6868C10.9436 17.7556 10.9228 17.8403 10.9356 17.9251C11.0508 18.6958 11.3786 19.4154 11.8855 20.0023C12.6786 20.9217 13.8092 21.4334 14.9973 21.4334C15.2004 21.4334 15.4067 21.4191 15.6113 21.3871L16.5756 21.2432C16.6779 22.1354 16.8666 23.0965 17.18 24.0975C16.0527 23.1668 14.4616 22.8678 13.0144 23.4531L11.8631 23.92C11.7 23.9856 11.62 24.1727 11.6872 24.3358C11.9798 25.0586 12.4675 25.6806 13.0976 26.1331C13.8124 26.6464 14.6503 26.9103 15.4962 26.9103C16.0175 26.9103 16.542 26.8111 17.0441 26.6081L18.0195 26.2131C18.4033 27.0078 18.8735 27.8138 19.4523 28.6197C18.1555 28.148 16.6491 28.3367 15.4882 29.2545L14.5128 30.0253C14.4456 30.0781 14.404 30.1548 14.3928 30.2396C14.3832 30.3243 14.4072 30.4091 14.46 30.4746C14.9429 31.0871 15.5857 31.546 16.3181 31.8035C16.7691 31.9618 17.2344 32.0401 17.6949 32.0401C18.6048 32.0401 19.5003 31.7363 20.2391 31.1526L21.0322 30.5258C21.9517 31.4965 23.0471 32.4527 24.3503 33.3722C24.4063 33.4121 24.4702 33.4297 24.5342 33.4297C24.6349 33.4297 24.7341 33.3818 24.7964 33.2938C24.8988 33.1499 24.8636 32.95 24.7197 32.8477V32.8493ZM15.8064 15.8942C14.6679 15.5153 13.8188 14.5926 13.5309 13.4253C13.3998 12.8928 13.3982 12.3395 13.5229 11.8054L14.3848 12.0932C15.2659 12.3875 15.9791 13.0063 16.3933 13.8362C16.7595 14.5702 16.8554 15.3921 16.6683 16.1805L15.8064 15.8926V15.8942ZM19.681 8.94784C20.1255 8.62642 20.6388 8.41854 21.1793 8.33539L21.2353 9.24207C21.3456 11.0474 20.052 12.6193 18.2978 12.8896L18.2418 11.9829C18.1683 10.7852 18.7056 9.65143 19.681 8.94944V8.94784ZM15.5154 20.757C14.3289 20.9345 13.1519 20.4964 12.3684 19.5865C12.0102 19.1708 11.7576 18.6782 11.628 18.1473L12.5267 18.013C14.3129 17.746 15.9935 18.9005 16.4141 20.6243L15.5154 20.7586V20.757ZM16.8026 26.018C15.6913 26.4673 14.444 26.3186 13.4686 25.6166C13.0224 25.2968 12.6626 24.8763 12.4116 24.3901L13.2543 24.0495C14.9301 23.3715 16.833 24.0991 17.6454 25.6758L16.8026 26.0164V26.018ZM19.8425 30.6521C18.9022 31.3957 17.663 31.602 16.5308 31.2022C16.0143 31.0199 15.549 30.7177 15.1716 30.3211L15.8848 29.7583C17.3032 28.6373 19.334 28.8036 20.5557 30.0893L19.8425 30.6521Z" fill="white"></path><path d="M53.7867 21.3886C53.993 21.419 54.1977 21.435 54.4008 21.435C55.5889 21.435 56.7194 20.9233 57.5126 20.0038C58.0195 19.4153 58.3473 18.6974 58.4624 17.9266C58.4752 17.8418 58.4528 17.7571 58.4033 17.6883C58.3521 17.6196 58.2769 17.5748 58.1938 17.562L56.9641 17.3797C55.3314 17.1367 53.7771 17.8946 52.9216 19.1883C52.9088 18.3456 52.8337 17.562 52.7265 16.8584L53.7931 16.5018C55.1395 16.0525 56.147 14.9603 56.4876 13.5787C56.6731 12.8255 56.6411 12.0356 56.3948 11.2952C56.3389 11.1273 56.1582 11.0378 55.9903 11.0937L54.8117 11.4871C53.4525 11.9412 52.4867 13.0382 52.1413 14.3287C51.9574 13.7514 51.7959 13.3596 51.7223 13.1933L51.7943 12.0196C51.8806 10.6028 51.2442 9.25959 50.0912 8.42807C49.4596 7.97393 48.716 7.70848 47.9389 7.66051C47.8557 7.65411 47.771 7.6845 47.707 7.74046C47.6431 7.79643 47.6047 7.87639 47.5999 7.96114L47.5231 9.20202C47.456 10.299 47.819 11.356 48.5481 12.1795C49.2309 12.9519 50.1568 13.43 51.1738 13.5435C51.4457 14.2007 52.4003 16.7641 52.274 20.047C52.0789 25.1304 49.5236 29.4384 44.6784 32.8508C44.5344 32.9531 44.4993 33.1514 44.6016 33.2969C44.664 33.3849 44.7631 33.4329 44.8639 33.4329C44.9278 33.4329 44.9918 33.4137 45.0478 33.3753C46.3526 32.4574 47.4464 31.4996 48.3658 30.5289L49.159 31.1558C49.8994 31.741 50.7932 32.0433 51.7031 32.0433C52.1637 32.0433 52.629 31.9649 53.0799 31.8066C53.8123 31.5491 54.4535 31.0886 54.9381 30.4778C54.9908 30.4106 55.0148 30.3259 55.0052 30.2427C54.9956 30.1579 54.9524 30.0812 54.8853 30.0284L53.9098 29.2577C52.7489 28.3414 51.2442 28.1511 49.9457 28.6228C50.5246 27.8169 50.9947 27.011 51.3785 26.2162L52.3539 26.6112C52.8561 26.8143 53.3806 26.9134 53.9019 26.9134C54.7478 26.9134 55.5857 26.6496 56.3005 26.1363C56.9305 25.6837 57.4182 25.0617 57.7109 24.3389C57.7764 24.1758 57.6981 23.9887 57.535 23.9231L56.3836 23.4562C54.9365 22.8709 53.347 23.1716 52.218 24.1006C52.5314 23.098 52.7217 22.1386 52.8225 21.2463L53.7867 21.3902V21.3886ZM55.0132 12.0932L55.8751 11.8053C55.9998 12.3378 55.9983 12.8911 55.8671 13.4252C55.5793 14.5909 54.7286 15.5152 53.5916 15.8942L52.7297 16.182C52.3236 14.455 53.299 12.6656 55.0132 12.0948V12.0932ZM53.5117 29.7566L54.2249 30.3195C53.8475 30.716 53.3838 31.0183 52.8657 31.2006C51.7319 31.6003 50.4942 31.394 49.554 30.6505L48.8408 30.0876C50.0625 28.8019 52.0933 28.6356 53.5117 29.7566ZM56.1422 24.0479L56.9849 24.3885C56.7338 24.8746 56.3724 25.2952 55.9279 25.615C54.9525 26.3154 53.7068 26.4657 52.5938 26.0163L51.7511 25.6757C52.5634 24.099 54.4647 23.3699 56.1422 24.0479ZM56.8697 18.0113L57.7684 18.1457C57.6389 18.6766 57.3862 19.1707 57.0281 19.5848C56.2445 20.4947 55.0676 20.9329 53.8811 20.7554L52.9824 20.621C53.4029 18.8972 55.082 17.7443 56.8697 18.0097V18.0113ZM49.0279 11.7542C48.4122 11.0586 48.1052 10.1663 48.1628 9.2388L48.2187 8.33212C48.7592 8.41527 49.2725 8.62475 49.7171 8.94457C50.6909 9.64657 51.2298 10.7819 51.1562 11.978L51.1003 12.8847C50.2991 12.7616 49.5715 12.3666 49.0279 11.7526V11.7542Z" fill="white"></path><path d="M26.5203 29.0881H25.2731L25.0428 29.7245H24.6494L25.6824 26.8829H26.1126L27.1424 29.7245H26.749L26.5187 29.0881H26.5203ZM26.4132 28.7842L25.8967 27.3403L25.3802 28.7842H26.4132Z" fill="white"></path><path d="M28.5094 27.7849H28.0376V29.7246H27.6651V27.7849H27.374V27.4779H27.6651V27.318C27.6651 27.0669 27.7306 26.883 27.8601 26.7663C27.9897 26.6495 28.1991 26.592 28.4854 26.592V26.9038C28.3207 26.9038 28.2055 26.9358 28.1384 26.9997C28.0712 27.0637 28.0376 27.1692 28.0376 27.318V27.4779H28.5094V27.7849Z" fill="white"></path><path d="M29.8594 27.7849H29.3876V29.7246H29.0151V27.7849H28.724V27.4779H29.0151V27.318C29.0151 27.0669 29.0806 26.883 29.2102 26.7663C29.3397 26.6495 29.5492 26.592 29.8354 26.592V26.9038C29.6707 26.9038 29.5556 26.9358 29.4884 26.9997C29.4212 27.0637 29.3876 27.1692 29.3876 27.318V27.4779H29.8594V27.7849Z" fill="white"></path><path d="M30.3049 27.0385C30.2554 26.989 30.2314 26.9298 30.2314 26.8578C30.2314 26.7859 30.2554 26.7267 30.3049 26.6771C30.3545 26.6276 30.4137 26.6036 30.4856 26.6036C30.5576 26.6036 30.612 26.6276 30.6599 26.6771C30.7079 26.7267 30.7319 26.7859 30.7319 26.8578C30.7319 26.9298 30.7079 26.989 30.6599 27.0385C30.612 27.0881 30.5544 27.1121 30.4856 27.1121C30.4169 27.1121 30.3545 27.0881 30.3049 27.0385ZM30.6663 27.4767V29.725H30.2937V27.4767H30.6663Z" fill="white"></path><path d="M31.6756 26.6896V29.7246H31.303V26.6896H31.6756Z" fill="white"></path><path d="M32.3234 27.0385C32.2739 26.989 32.2499 26.9298 32.2499 26.8578C32.2499 26.7859 32.2739 26.7267 32.3234 26.6771C32.373 26.6276 32.4322 26.6036 32.5041 26.6036C32.5761 26.6036 32.6305 26.6276 32.6784 26.6771C32.7264 26.7267 32.7504 26.7859 32.7504 26.8578C32.7504 26.9298 32.7264 26.989 32.6784 27.0385C32.6305 27.0881 32.5729 27.1121 32.5041 27.1121C32.4354 27.1121 32.373 27.0881 32.3234 27.0385ZM32.6848 27.4767V29.725H32.3122V27.4767H32.6848Z" fill="white"></path><path d="M33.3196 27.9881C33.4124 27.8138 33.5403 27.6794 33.7034 27.5835C33.8665 27.4875 34.0472 27.4396 34.2471 27.4396C34.447 27.4396 34.6149 27.4828 34.7604 27.5659C34.9059 27.6507 35.013 27.7578 35.085 27.8857V27.4748H35.4624V29.7231H35.085V29.3041C35.0114 29.4352 34.9011 29.544 34.7556 29.6303C34.6085 29.7167 34.439 29.7598 34.2455 29.7598C34.052 29.7598 33.8649 29.7103 33.7034 29.6127C33.5419 29.5152 33.4156 29.3761 33.3212 29.1986C33.2285 29.0211 33.1821 28.818 33.1821 28.5909C33.1821 28.3638 33.2285 28.1592 33.3212 27.9865L33.3196 27.9881ZM34.9811 28.1544C34.9123 28.028 34.8212 27.9321 34.7044 27.8649C34.5877 27.7978 34.4598 27.7642 34.3206 27.7642C34.1815 27.7642 34.0536 27.7978 33.9385 27.8633C33.8233 27.9289 33.7322 28.0248 33.6634 28.1512C33.5947 28.2775 33.5611 28.4246 33.5611 28.5941C33.5611 28.7636 33.5947 28.9155 33.6634 29.0435C33.7322 29.1698 33.8233 29.2673 33.9385 29.3345C34.0536 29.4016 34.1799 29.4352 34.3206 29.4352C34.4614 29.4352 34.5877 29.4016 34.7044 29.3345C34.8212 29.2673 34.9123 29.1698 34.9811 29.0435C35.0498 28.9171 35.0834 28.7684 35.0834 28.5989C35.0834 28.4294 35.0498 28.2823 34.9811 28.156V28.1544Z" fill="white"></path><path d="M36.5481 27.7852V29.1092C36.5481 29.2179 36.5705 29.2963 36.6184 29.3411C36.6664 29.3858 36.7448 29.4082 36.8599 29.4082H37.1349V29.7232H36.7991C36.5912 29.7232 36.4361 29.6753 36.3322 29.5793C36.2283 29.4834 36.1771 29.3267 36.1771 29.1076V27.7836H35.886V27.4765H36.1771V26.9105H36.5497V27.4765H37.1365V27.7836H36.5497L36.5481 27.7852Z" fill="white"></path><path d="M39.6228 28.7396H37.827C37.8398 28.9603 37.9166 29.1346 38.0541 29.2577C38.1916 29.3825 38.3595 29.4448 38.5562 29.4448C38.7177 29.4448 38.8521 29.408 38.9608 29.3313C39.0679 29.2561 39.1447 29.1554 39.1879 29.0291H39.5892C39.5285 29.2449 39.4085 29.4208 39.2278 29.5568C39.0471 29.6927 38.8233 29.7598 38.5546 29.7598C38.342 29.7598 38.1501 29.7119 37.9822 29.6159C37.8143 29.52 37.6815 29.3841 37.5872 29.2082C37.4912 29.0323 37.4433 28.8276 37.4433 28.5957C37.4433 28.3638 37.4896 28.1592 37.5824 27.9849C37.6751 27.8106 37.8063 27.6746 37.9742 27.5803C38.1421 27.4859 38.3356 27.4396 38.5546 27.4396C38.7737 27.4396 38.956 27.4859 39.1207 27.5787C39.2854 27.6714 39.4117 27.7994 39.4997 27.9625C39.5892 28.1256 39.6324 28.3095 39.6324 28.5142C39.6324 28.5861 39.6276 28.6613 39.6196 28.7396H39.6228ZM39.1559 28.0696C39.0935 27.9673 39.0072 27.8889 38.9 27.8361C38.7913 27.7834 38.673 27.7562 38.5418 27.7562C38.3531 27.7562 38.1932 27.817 38.0605 27.9369C37.9278 28.0568 37.8526 28.2231 37.8334 28.4374H39.2534C39.2534 28.2951 39.2214 28.1736 39.1591 28.0696H39.1559Z" fill="white"></path><path d="M41.6311 29.6176C41.46 29.5217 41.3256 29.3858 41.2297 29.2099C41.1321 29.034 41.0842 28.8293 41.0842 28.5974C41.0842 28.3656 41.1337 28.1641 41.2345 27.9882C41.3352 27.8123 41.4695 27.6763 41.6422 27.582C41.8149 27.4877 42.0068 27.4413 42.2211 27.4413C42.4354 27.4413 42.6273 27.4877 42.8 27.582C42.9727 27.6763 43.1086 27.8107 43.2077 27.9866C43.3069 28.1609 43.3581 28.3656 43.3581 28.5974C43.3581 28.8293 43.3069 29.034 43.2045 29.2099C43.1022 29.3858 42.9631 29.5217 42.7888 29.6176C42.6145 29.7136 42.4194 29.7615 42.2067 29.7615C41.994 29.7615 41.8054 29.7136 41.6342 29.6176H41.6311ZM42.5809 29.3394C42.6976 29.277 42.7936 29.1827 42.8655 29.0564C42.9375 28.93 42.9743 28.7781 42.9743 28.5974C42.9743 28.4167 42.9391 28.2632 42.8671 28.1385C42.7952 28.0138 42.7024 27.9194 42.5889 27.857C42.4738 27.7963 42.349 27.7643 42.2163 27.7643C42.0836 27.7643 41.9541 27.7947 41.8405 27.857C41.727 27.9178 41.6358 28.0122 41.5671 28.1385C41.4983 28.2648 41.4647 28.4167 41.4647 28.5974C41.4647 28.7781 41.4983 28.9348 41.5655 29.0612C41.6327 29.1875 41.7222 29.2802 41.8341 29.3426C41.9461 29.4034 42.0692 29.4353 42.2035 29.4353C42.3378 29.4353 42.4626 29.4034 42.5809 29.341V29.3394Z" fill="white"></path><path d="M44.7623 27.7849H44.2905V29.7246H43.918V27.7849H43.6269V27.4779H43.918V27.318C43.918 27.0669 43.9835 26.883 44.113 26.7663C44.2426 26.6495 44.452 26.592 44.7383 26.592V26.9038C44.5736 26.9038 44.4584 26.9358 44.3913 26.9997C44.3241 27.0637 44.2905 27.1692 44.2905 27.318V27.4779H44.7623V27.7849Z" fill="white"></path><path d="M26.9709 31.7141V33.0382C26.9709 33.1469 26.9933 33.2252 27.0413 33.27C27.0893 33.3148 27.1676 33.3372 27.2828 33.3372H27.5578V33.6522H27.222C27.0141 33.6522 26.859 33.6042 26.7551 33.5083C26.6511 33.4123 26.6 33.2556 26.6 33.0366V31.7125H26.3089V31.4055H26.6V30.8394H26.9725V31.4055H27.5594V31.7125H26.9725L26.9709 31.7141Z" fill="white"></path><path d="M29.5839 31.4743C29.7199 31.5463 29.8286 31.655 29.9054 31.8005C29.9821 31.946 30.0221 32.1219 30.0221 32.3298V33.6538H29.6527V32.3826C29.6527 32.1587 29.5967 31.9876 29.4848 31.8677C29.3729 31.7477 29.2194 31.6886 29.0259 31.6886C28.8324 31.6886 28.6725 31.7493 28.5557 31.8725C28.439 31.9956 28.3814 32.1747 28.3814 32.4098V33.6522H28.0089V30.6172H28.3814V31.7254C28.455 31.6102 28.5573 31.5223 28.6869 31.4583C28.8164 31.3959 28.9619 31.364 29.1234 31.364C29.2929 31.364 29.4464 31.4007 29.5823 31.4727L29.5839 31.4743Z" fill="white"></path><path d="M32.6718 32.6685H30.8761C30.8889 32.8892 30.9656 33.0635 31.1031 33.1866C31.2406 33.3114 31.4086 33.3737 31.6052 33.3737C31.7667 33.3737 31.9011 33.3369 32.0098 33.2602C32.1169 33.185 32.1937 33.0843 32.2369 32.958H32.6382C32.5775 33.1738 32.4575 33.3497 32.2769 33.4857C32.0962 33.6216 31.8723 33.6887 31.6036 33.6887C31.391 33.6887 31.1991 33.6408 31.0312 33.5448C30.8633 33.4489 30.7305 33.313 30.6362 33.1371C30.5403 32.9612 30.4923 32.7565 30.4923 32.5246C30.4923 32.2927 30.5387 32.0881 30.6314 31.9138C30.7241 31.7395 30.8553 31.6035 31.0232 31.5092C31.1911 31.4148 31.3846 31.3685 31.6036 31.3685C31.8227 31.3685 32.005 31.4148 32.1697 31.5076C32.3344 31.6003 32.4607 31.7283 32.5487 31.8914C32.6382 32.0545 32.6814 32.2384 32.6814 32.4431C32.6814 32.515 32.6766 32.5902 32.6686 32.6685H32.6718ZM32.2049 31.9985C32.1425 31.8962 32.0562 31.8178 31.949 31.765C31.8403 31.7123 31.722 31.6851 31.5908 31.6851C31.4022 31.6851 31.2422 31.7459 31.1095 31.8658C30.9768 31.9857 30.9016 32.152 30.8825 32.3663H32.3024C32.3024 32.224 32.2705 32.1024 32.2081 31.9985H32.2049Z" fill="white"></path><path d="M36.2723 30.7947L35.3416 32.5745V33.6538H34.969V32.5745L34.0336 30.7947H34.4477L35.1529 32.2418L35.8581 30.7947H36.2723Z" fill="white"></path><path d="M38.7043 32.6685H36.9085C36.9213 32.8892 36.998 33.0635 37.1356 33.1866C37.2731 33.3114 37.441 33.3737 37.6377 33.3737C37.7992 33.3737 37.9335 33.3369 38.0422 33.2602C38.1494 33.185 38.2261 33.0843 38.2693 32.958H38.6707C38.6099 33.1738 38.49 33.3497 38.3093 33.4857C38.1286 33.6216 37.9047 33.6887 37.6361 33.6887C37.4234 33.6887 37.2315 33.6408 37.0636 33.5448C36.8957 33.4489 36.763 33.313 36.6686 33.1371C36.5727 32.9612 36.5247 32.7565 36.5247 32.5246C36.5247 32.2927 36.5711 32.0881 36.6638 31.9138C36.7566 31.7395 36.8877 31.6035 37.0556 31.5092C37.2235 31.4148 37.417 31.3685 37.6361 31.3685C37.8552 31.3685 38.0374 31.4148 38.2022 31.5076C38.3669 31.6003 38.4932 31.7283 38.5811 31.8914C38.6707 32.0545 38.7139 32.2384 38.7139 32.4431C38.7139 32.515 38.7091 32.5902 38.7011 32.6685H38.7043ZM38.2373 31.9985C38.175 31.8962 38.0886 31.8178 37.9815 31.765C37.8727 31.7123 37.7544 31.6851 37.6233 31.6851C37.4346 31.6851 37.2747 31.7459 37.142 31.8658C37.0092 31.9857 36.9341 32.152 36.9149 32.3663H38.3349C38.3349 32.224 38.3029 32.1024 38.2405 31.9985H38.2373Z" fill="white"></path><path d="M39.2089 31.917C39.3017 31.7427 39.4296 31.6083 39.5927 31.5124C39.7558 31.4164 39.9365 31.3685 40.1364 31.3685C40.3363 31.3685 40.5042 31.4116 40.6497 31.4948C40.7952 31.5795 40.9024 31.6867 40.9743 31.8146V31.4036H41.3517V33.652H40.9743V33.233C40.9008 33.3641 40.7904 33.4729 40.6449 33.5592C40.4978 33.6456 40.3283 33.6887 40.1348 33.6887C39.9413 33.6887 39.7542 33.6392 39.5927 33.5416C39.4312 33.4441 39.3049 33.305 39.2105 33.1275C39.1178 32.95 39.0714 32.7469 39.0714 32.5198C39.0714 32.2927 39.1178 32.0881 39.2105 31.9154L39.2089 31.917ZM40.8704 32.0833C40.8016 31.9569 40.7105 31.861 40.5937 31.7938C40.477 31.7267 40.3491 31.6931 40.21 31.6931C40.0708 31.6931 39.9429 31.7267 39.8278 31.7922C39.7126 31.8578 39.6215 31.9537 39.5527 32.0801C39.484 32.2064 39.4504 32.3535 39.4504 32.523C39.4504 32.6925 39.484 32.8444 39.5527 32.9723C39.6215 33.0987 39.7126 33.1962 39.8278 33.2634C39.9429 33.3305 40.0692 33.3641 40.21 33.3641C40.3507 33.3641 40.477 33.3305 40.5937 33.2634C40.7105 33.1962 40.8016 33.0987 40.8704 32.9723C40.9391 32.846 40.9727 32.6973 40.9727 32.5278C40.9727 32.3583 40.9391 32.2112 40.8704 32.0849V32.0833Z" fill="white"></path><path d="M42.6357 31.4708C42.7572 31.4005 42.906 31.3637 43.0803 31.3637V31.7491H42.9811C42.5622 31.7491 42.3543 31.9762 42.3543 32.4303V33.652H41.9817V31.4037H42.3543V31.7683C42.4198 31.6403 42.5142 31.5396 42.6357 31.4692V31.4708Z" fill="white"></path><path d="M26.5522 24.2166L23.4356 20.9561V24.1862H22.3882V18.308L25.4744 21.5381V18.4311H26.5522V24.2182V24.2166Z" fill="white"></path><path d="M32.3793 24.1248H31.3511L30.9945 23.394H28.1993L27.8795 24.1248H26.8385L29.6033 18.253L32.3777 24.1248H32.3793ZM30.5883 22.5097L29.6065 20.3542L28.5511 22.5097H30.5899H30.5883Z" fill="white"></path><path d="M34.9281 20.2266C34.7746 19.6989 34.3348 19.4446 33.6168 19.4654V21.8704L33.6248 24.1267H32.6702V18.498H33.7703C34.4356 18.498 34.9489 18.6483 35.307 18.9473C35.7324 19.3343 35.9563 19.8812 35.9771 20.5928C35.9579 21.1205 35.7916 21.5474 35.4813 21.872L35.1311 22.2366L36.4136 24.1251H35.2639L33.7639 21.8688C34.346 21.7857 34.725 21.5138 34.9009 21.0469C35.0144 20.7623 35.0224 20.4856 34.9265 20.2234L34.9281 20.2266Z" fill="white"></path><path d="M40.2164 20.3485C40.2451 20.8762 40.1876 21.2632 40.0405 21.5063C39.8949 21.7493 39.6183 21.9844 39.2105 22.2067C38.822 22.3282 38.4158 22.389 37.9872 22.389L37.9936 24.1256H37.0246L37.0406 18.4968H38.0224C38.4638 18.4504 38.8619 18.4888 39.2089 18.6119C39.6375 18.8134 39.9125 19.0421 40.0389 19.2964C40.1668 19.5506 40.226 19.9008 40.2164 20.3485ZM39.3561 20.4701C39.3177 19.8209 38.9675 19.4547 38.3087 19.3747H37.9872V21.4151H38.3374C39.0171 21.3544 39.3561 21.0393 39.3561 20.4701Z" fill="white"></path><path d="M46.1725 24.1557H45.2115L45.1891 21.1094L43.5292 22.9372L41.8694 21.1094V24.1557H40.8508V18.2775L43.502 21.4149L46.1757 18.3078V24.1557H46.1741H46.1725Z" fill="white"></path><path d="M46.9579 19.226V18.3817H46.6429V18.2698H47.4009V18.3817H47.0843V19.226H46.9579Z" fill="white"></path><path d="M47.5258 19.2255V18.2676H47.7176L47.9431 18.9456C47.9639 19.008 47.9799 19.056 47.9879 19.088C47.9991 19.0528 48.0167 19.0016 48.0391 18.9345L48.2677 18.2676H48.4372V19.2255H48.3157V18.4243L48.0375 19.2255H47.9239L47.6473 18.41V19.2255H47.5258Z" fill="white"></path></svg>