<svg xmlns="http://www.w3.org/2000/svg" width="134" height="119" viewBox="0 0 134 119" fill="none"><path d="M101.113 14H40.6405C39.6692 14 38.8819 14.7873 38.8819 15.7621V81.5751H26.4111V102.338H40.6405H47.1741H101.113C102.084 102.338 102.872 101.551 102.872 100.579V15.7621C102.875 14.7873 102.084 14 101.113 14Z" fill="#EAF5FF"></path><path d="M102.872 15.7587V100.576C102.872 101.547 102.084 102.338 101.113 102.338H96.9277C97.8991 102.338 98.6864 101.547 98.6864 100.576V15.7587C98.6864 14.7873 97.8991 14 96.9277 14H101.113C102.084 14 102.872 14.7873 102.872 15.7587Z" fill="#D8EBFC"></path><path d="M27.4645 102.338C33.7697 102.338 38.8821 97.2261 38.8821 90.9209V49.8243H17.8055C16.8342 49.8243 16.0469 50.6116 16.0469 51.583V90.9209C16.0469 97.2261 21.1592 102.338 27.4645 102.338Z" fill="#C5E3FE"></path><path d="M90.8676 51.5792H49.2122C48.5032 51.5792 47.9307 51.0066 47.9307 50.2977C47.9307 49.5888 48.5032 49.0162 49.2122 49.0162H90.8676C91.5765 49.0162 92.1491 49.5888 92.1491 50.2977C92.1491 51.0032 91.5731 51.5792 90.8676 51.5792Z" fill="#C5E3FE"></path><path d="M90.8676 73.8858H49.2122C48.5032 73.8858 47.9307 73.3132 47.9307 72.6043C47.9307 71.8954 48.5032 71.3228 49.2122 71.3228H90.8676C91.5765 71.3228 92.1491 71.8954 92.1491 72.6043C92.1491 73.3132 91.5731 73.8858 90.8676 73.8858Z" fill="#C5E3FE"></path><path d="M90.8676 82.2296H49.2122C48.5032 82.2296 47.9307 81.657 47.9307 80.9481C47.9307 80.2392 48.5032 79.6666 49.2122 79.6666H90.8676C91.5765 79.6666 92.1491 80.2392 92.1491 80.9481C92.1491 81.657 91.5731 82.2296 90.8676 82.2296Z" fill="#C5E3FE"></path><path d="M49.2432 57.0764C49.2432 56.405 49.7748 55.8733 50.4463 55.8733H54.2396C55.6302 55.8733 56.7072 56.2653 57.4263 56.981C58.0364 57.5911 58.3636 58.45 58.3636 59.4793V59.5099C58.3636 61.2277 57.5047 62.291 56.1755 62.8364L57.8456 64.8677C58.0807 65.1642 58.2375 65.413 58.2375 65.7879C58.2375 66.4593 57.6751 66.8956 57.0991 66.8956C56.5538 66.8956 56.1926 66.6297 55.9131 66.2719L53.5716 63.3033H51.6494V65.6925C51.6494 66.3639 51.1177 66.8956 50.4463 66.8956C49.7748 66.8956 49.2432 66.3639 49.2432 65.6925V57.0764ZM54.0829 61.1834C55.2553 61.1834 55.9267 60.5597 55.9267 59.636V59.6054C55.9267 58.5761 55.2076 58.0444 54.0386 58.0444H51.6494V61.1834H54.0829Z" fill="#3D5577"></path><path d="M60.5342 65.6039V57.0764C60.5342 56.405 61.0659 55.8733 61.7373 55.8733H67.7971C68.3902 55.8733 68.8741 56.3573 68.8741 56.9503C68.8741 57.5434 68.3902 58.0137 67.7971 58.0137H62.9234V60.2325H67.095C67.6881 60.2325 68.172 60.7164 68.172 61.3095C68.172 61.9025 67.6881 62.3728 67.095 62.3728H62.9234V64.67H67.8755C68.4686 64.67 68.9525 65.154 68.9525 65.747C68.9525 66.34 68.4686 66.8104 67.8755 66.8104H61.7373C61.0659 66.807 60.5342 66.2753 60.5342 65.6039Z" fill="#3D5577"></path><path d="M71.001 57.0152C71.001 56.3438 71.5327 55.8121 72.2041 55.8121H72.4529C73.0323 55.8121 73.3731 56.0916 73.7037 56.5142L78.3423 62.6047V56.9675C78.3423 56.3131 78.874 55.7814 79.5284 55.7814C80.1828 55.7814 80.7145 56.3131 80.7145 56.9675V65.6653C80.7145 66.3367 80.1828 66.8684 79.5113 66.8684H79.433C78.8536 66.8684 78.5127 66.5855 78.1821 66.1663L73.3731 59.8577V65.713C73.3731 66.3674 72.8414 66.8991 72.187 66.8991C71.5327 66.8991 71.001 66.3674 71.001 65.713V57.0152Z" fill="#3D5577"></path><path d="M85.8853 58.0918H83.5745C82.9644 58.0918 82.4668 57.5908 82.4668 56.9841C82.4668 56.3774 82.9678 55.8764 83.5745 55.8764H90.6023C91.2123 55.8764 91.7099 56.3774 91.7099 56.9841C91.7099 57.5908 91.2089 58.0918 90.6023 58.0918H88.2915V65.699C88.2915 66.3704 87.7598 66.9021 87.0884 66.9021C86.4169 66.9021 85.8853 66.3704 85.8853 65.699V58.0918Z" fill="#3D5577"></path><path d="M81.5802 23.6287H75.1113V43.9043H81.5802V23.6287Z" fill="#C5E3FE"></path><path d="M75.1115 23.6287H60.6367V43.9043H75.1115V23.6287Z" fill="#D8EBFC"></path><path d="M74.676 35.7107V44.0984C74.676 44.429 74.4067 44.6982 74.0761 44.6982H70.126C70.4566 44.6982 70.7224 44.429 70.7224 44.0984V35.7107C70.7224 35.3801 70.4566 35.1143 70.126 35.1143H74.0761C74.4067 35.1143 74.676 35.3801 74.676 35.7107Z" fill="#364D6D"></path><path d="M70.7213 35.7107V44.0984C70.7213 44.429 70.4554 44.6982 70.1248 44.6982H67.9197C67.5925 44.6982 67.3232 44.429 67.3232 44.0984V35.7107C67.3232 35.3801 67.5925 35.1143 67.9197 35.1143H70.1248C70.4554 35.1143 70.7213 35.3801 70.7213 35.7107Z" fill="#3D5577"></path><path d="M86.2386 28.7502C85.7273 29.7625 84.7083 30.3487 83.6449 30.3487C83.4438 30.3487 83.2427 30.3282 83.0417 30.2839C83.0689 30.243 83.0894 30.1987 83.1132 30.1544C83.8324 28.7264 83.253 26.9848 81.8249 26.2656L69.3542 20.0013C68.785 19.715 68.1477 19.6264 67.5342 19.7388L69.9063 18.58C70.7209 18.1847 71.6718 18.1915 72.4795 18.5971L84.9503 24.8614C86.3783 25.5806 86.9543 27.3222 86.2386 28.7502Z" fill="#ED7382"></path><path d="M83.1128 30.1542C83.0889 30.1985 83.0685 30.2428 83.0412 30.2837C82.806 30.2326 82.5743 30.1508 82.3493 30.0383L71.1601 24.4181L68.1574 25.8837L59.6198 30.0519C59.3778 30.1712 59.129 30.253 58.8768 30.2939C57.6294 30.5291 56.3274 29.9156 55.7446 28.7193C55.0425 27.281 55.639 25.5462 57.0773 24.8475L67.5337 19.7386C68.1472 19.6261 68.7846 19.7147 69.3537 20.001L81.8245 26.2654C83.2525 26.9845 83.8319 28.7261 83.1128 30.1542Z" fill="#F28A97"></path><path d="M82.2996 46.6405H59.703C58.8271 46.6405 58.1182 45.9315 58.1182 45.0556C58.1182 44.1797 58.8271 43.4708 59.703 43.4708H82.2996C83.1755 43.4708 83.8844 44.1797 83.8844 45.0556C83.8844 45.9315 83.1755 46.6405 82.2996 46.6405Z" fill="#8AD7A4"></path><rect x="44.6758" y="89.3221" width="73.2771" height="15.6779" rx="7.83895" fill="#F6921E"></rect><path d="M50.4717 97.3966C50.4717 96.899 50.8739 96.4969 51.3715 96.4969H58.2186C58.7162 96.4969 59.1184 96.899 59.1184 97.3966C59.1184 97.8942 58.7162 98.2964 58.2186 98.2964H51.3715C50.8739 98.2964 50.4717 97.8942 50.4717 97.3966Z" fill="white"></path><path d="M54.7972 101.718C54.2996 101.718 53.8975 101.316 53.8975 100.818V93.9711C53.8975 93.4735 54.2996 93.0713 54.7972 93.0713C55.2948 93.0713 55.697 93.4735 55.697 93.9711V100.818C55.697 101.316 55.2948 101.718 54.7972 101.718Z" fill="white"></path><path d="M67.9907 97.2373C67.8222 97.54 67.5642 97.7859 67.2152 97.9716C66.8661 98.1573 66.4345 98.2501 65.9169 98.2501H64.9626V100.522H63.4219V94.1972H65.9186C66.4242 94.1972 66.8489 94.2848 67.198 94.4585C67.5453 94.6322 67.8084 94.8729 67.9821 95.179C68.1558 95.4851 68.2435 95.8376 68.2435 96.2331C68.2435 96.5994 68.1592 96.9347 67.9907 97.2373ZM66.4586 96.8195C66.603 96.6819 66.6752 96.4859 66.6752 96.2331C66.6752 95.9803 66.603 95.786 66.4586 95.6467C66.3141 95.5092 66.0958 95.4404 65.8017 95.4404H64.9643V97.0258H65.8017C66.0958 97.0258 66.3141 96.957 66.4586 96.8195Z" fill="white"></path><path d="M73.5779 98.3775H70.0907C70.1148 98.6905 70.2162 98.9295 70.3933 99.0946C70.5705 99.2597 70.7888 99.3422 71.0468 99.3422C71.4302 99.3422 71.6985 99.1806 71.8481 98.8556H73.4885C73.4043 99.1857 73.2529 99.4832 73.0328 99.748C72.8145 100.013 72.5393 100.219 72.2092 100.371C71.879 100.52 71.5093 100.596 71.1001 100.596C70.6066 100.596 70.1681 100.491 69.7846 100.281C69.3994 100.071 69.1002 99.7704 68.8836 99.38C68.6669 98.9897 68.5586 98.5323 68.5586 98.0113C68.5586 97.4885 68.6652 97.0329 68.8784 96.6408C69.0917 96.2505 69.3909 95.9495 69.7743 95.7397C70.1595 95.53 70.5997 95.4233 71.0984 95.4233C71.585 95.4233 72.0183 95.5248 72.3966 95.7294C72.7749 95.9341 73.0707 96.2247 73.2839 96.603C73.4971 96.9813 73.6037 97.4232 73.6037 97.927C73.6054 98.0715 73.5968 98.2228 73.5779 98.3775ZM72.0286 97.5212C72.0286 97.2564 71.9392 97.0466 71.7587 96.8901C71.5781 96.7337 71.3528 96.6563 71.0829 96.6563C70.8249 96.6563 70.6066 96.7319 70.4295 96.8815C70.2523 97.0311 70.1423 97.2444 70.101 97.5212H72.0286Z" fill="white"></path><path d="M75.1101 100.371C74.7679 100.221 74.4979 100.015 74.2984 99.7535C74.1007 99.4921 73.9889 99.1998 73.9648 98.8748H75.4884C75.5073 99.0484 75.5881 99.1895 75.7325 99.2978C75.877 99.4061 76.0541 99.4594 76.2639 99.4594C76.4565 99.4594 76.6043 99.4216 76.7092 99.3459C76.8141 99.2703 76.8674 99.174 76.8674 99.0536C76.8674 98.9092 76.7918 98.8026 76.6422 98.7338C76.4926 98.665 76.2484 98.5876 75.9131 98.5033C75.552 98.4191 75.2528 98.3314 75.012 98.2368C74.7713 98.144 74.565 97.9961 74.3913 97.7949C74.2176 97.5937 74.1299 97.322 74.1299 96.9798C74.1299 96.6909 74.209 96.4296 74.3689 96.1905C74.5289 95.9532 74.7627 95.7658 75.0722 95.6265C75.3817 95.489 75.7497 95.4202 76.1762 95.4202C76.8072 95.4202 77.3042 95.5767 77.667 95.8879C78.0298 96.2009 78.2396 96.6153 78.2929 97.1311H76.8691C76.8451 96.9575 76.7677 96.8182 76.6387 96.7167C76.5098 96.6153 76.3395 96.5637 76.1297 96.5637C75.9492 96.5637 75.8116 96.5981 75.7153 96.6669C75.619 96.7356 75.5709 96.8302 75.5709 96.9506C75.5709 97.095 75.6483 97.2034 75.8013 97.2756C75.9544 97.3478 76.1934 97.42 76.5166 97.4922C76.8898 97.5885 77.1924 97.6831 77.4263 97.776C77.6601 97.8688 77.8665 98.0202 78.0436 98.2265C78.2207 98.4328 78.3118 98.7114 78.3187 99.0605C78.3187 99.3545 78.2362 99.6176 78.0711 99.8498C77.906 100.08 77.6687 100.262 77.3592 100.395C77.0497 100.527 76.6903 100.593 76.2828 100.593C75.8426 100.596 75.4522 100.52 75.1101 100.371Z" fill="white"></path><path d="M81.8896 99.217V100.524H81.1055C80.5466 100.524 80.1116 100.388 79.7986 100.115C79.4857 99.8412 79.3309 99.3958 79.3309 98.7768V96.7752H78.7188V95.4941H79.3309V94.2681H80.8716V95.4941H81.881V96.7735H80.8716V98.7922C80.8716 98.9418 80.9077 99.0502 80.9799 99.1172C81.0522 99.1843 81.1725 99.217 81.341 99.217H81.8896Z" fill="white"></path><path d="M85.3403 100.36C84.974 100.21 84.6817 99.9881 84.4616 99.6924C84.2415 99.3983 84.1263 99.0424 84.1143 98.628H85.7547C85.7788 98.8618 85.8596 99.0406 85.9972 99.1645C86.1347 99.2883 86.3153 99.3484 86.5371 99.3484C86.7658 99.3484 86.9463 99.2969 87.0787 99.1902C87.2111 99.0854 87.2765 98.9392 87.2765 98.7535C87.2765 98.597 87.2232 98.468 87.1183 98.3666C87.0134 98.2651 86.8844 98.1809 86.7314 98.1138C86.5784 98.0485 86.36 97.9728 86.078 97.8885C85.6687 97.763 85.3369 97.6358 85.0772 97.5102C84.8193 97.3847 84.5974 97.1973 84.41 96.9514C84.2243 96.7055 84.1315 96.3839 84.1315 95.9867C84.1315 95.3986 84.3447 94.9378 84.7711 94.6042C85.1976 94.2706 85.753 94.1038 86.4374 94.1038C87.1338 94.1038 87.6961 94.2706 88.1225 94.6042C88.549 94.9378 88.7776 95.4021 88.8069 95.997H87.1389C87.1269 95.7924 87.0512 95.6325 86.9137 95.5156C86.7761 95.3986 86.599 95.3402 86.3823 95.3402C86.1966 95.3402 86.0453 95.39 85.9318 95.488C85.8183 95.5878 85.7599 95.7305 85.7599 95.9162C85.7599 96.1208 85.8562 96.2808 86.0487 96.3942C86.2413 96.5077 86.5422 96.6315 86.9498 96.764C87.359 96.9015 87.6909 97.0339 87.9454 97.1612C88.1999 97.2867 88.4217 97.4707 88.6074 97.7114C88.7931 97.9522 88.886 98.2617 88.886 98.64C88.886 99.0011 88.7948 99.3278 88.6109 99.6219C88.4269 99.9159 88.1621 100.15 87.813 100.325C87.4639 100.499 87.0529 100.587 86.5784 100.587C86.121 100.585 85.7066 100.511 85.3403 100.36Z" fill="white"></path><path d="M94.1366 96.0133C94.4857 96.395 94.6594 96.9195 94.6594 97.585V100.522H93.1273V97.793C93.1273 97.456 93.0396 97.1946 92.8659 97.0089C92.6922 96.8232 92.4566 96.7303 92.1626 96.7303C91.8686 96.7303 91.6347 96.8232 91.4593 97.0089C91.2856 97.1946 91.1979 97.456 91.1979 97.793V100.524H89.6572V93.8552H91.1979V96.1715C91.3544 95.9497 91.5676 95.7725 91.8376 95.6401C92.1076 95.5077 92.4119 95.4424 92.7472 95.4424C93.325 95.4407 93.7876 95.6315 94.1366 96.0133Z" fill="white"></path><path d="M95.5372 96.6397C95.7315 96.2494 95.998 95.9484 96.3351 95.7387C96.6721 95.5289 97.047 95.4223 97.4614 95.4223C97.8156 95.4223 98.1268 95.4945 98.3934 95.6389C98.6616 95.7834 98.8662 95.9725 99.0107 96.2064V95.4945H100.551V100.522H99.0107V99.8106C98.8611 100.044 98.6513 100.234 98.3848 100.378C98.1165 100.522 97.807 100.595 97.4528 100.595C97.0435 100.595 96.6721 100.488 96.3351 100.275C95.998 100.062 95.7332 99.759 95.5372 99.3652C95.3412 98.9714 95.2432 98.5175 95.2432 97.9999C95.2432 97.484 95.3412 97.03 95.5372 96.6397ZM98.6908 97.0988C98.4776 96.877 98.218 96.7652 97.9119 96.7652C97.6058 96.7652 97.3462 96.8753 97.1329 97.0937C96.9197 97.3138 96.8131 97.6147 96.8131 97.9999C96.8131 98.3851 96.9197 98.6894 97.1329 98.9147C97.3462 99.1399 97.6058 99.2534 97.9119 99.2534C98.218 99.2534 98.4776 99.1417 98.6908 98.9198C98.9041 98.698 99.0107 98.3937 99.0107 98.0102C99.0107 97.625 98.9041 97.3206 98.6908 97.0988Z" fill="white"></path><path d="M103.703 95.6803C103.973 95.5221 104.274 95.4413 104.604 95.4413V97.0732H104.181C103.796 97.0732 103.507 97.1557 103.316 97.3208C103.123 97.4858 103.027 97.7747 103.027 98.1909V100.524H101.486V95.4946H103.027V96.332C103.208 96.0569 103.433 95.8385 103.703 95.6803Z" fill="white"></path><path d="M109.878 98.3775H106.391C106.415 98.6905 106.516 98.9295 106.693 99.0946C106.87 99.2597 107.089 99.3422 107.347 99.3422C107.73 99.3422 107.998 99.1806 108.148 98.8556H109.788C109.704 99.1857 109.553 99.4832 109.333 99.748C109.114 100.013 108.839 100.219 108.509 100.371C108.179 100.52 107.809 100.596 107.4 100.596C106.906 100.596 106.468 100.491 106.084 100.281C105.699 100.071 105.4 99.7704 105.183 99.38C104.967 98.9897 104.858 98.5323 104.858 98.0113C104.858 97.4885 104.965 97.0329 105.178 96.6408C105.391 96.2505 105.691 95.9495 106.074 95.7397C106.459 95.53 106.899 95.4233 107.398 95.4233C107.885 95.4233 108.318 95.5248 108.696 95.7294C109.075 95.9341 109.37 96.2247 109.584 96.603C109.797 96.9813 109.904 97.4232 109.904 97.927C109.905 98.0715 109.897 98.2228 109.878 98.3775ZM108.328 97.5212C108.328 97.2564 108.239 97.0466 108.058 96.8901C107.878 96.7337 107.653 96.6563 107.383 96.6563C107.125 96.6563 106.906 96.7319 106.729 96.8815C106.552 97.0311 106.442 97.2444 106.401 97.5212H108.328Z" fill="white"></path><path d="M111.042 95.4621V95.622H110.724V96.6572H110.528V95.622H110.208V95.4621H111.042Z" fill="white"></path><path d="M112.501 95.4621V96.6572H112.305V95.8386L111.94 96.6572H111.804L111.438 95.8386V96.6572H111.242V95.4621H111.454L111.873 96.3992L112.291 95.4621H112.501Z" fill="white"></path></svg>